# xmcd
#
# Track frame offsets: 
#        150
#        33425
#        70000
#        87682
#        110115
#        133980
#        150195
#        169870
#        199877
#
# Disc length: 2878 seconds
#
# Revision: 7
# Processed by: cddbd v1.5.2PL0 Copyright (c) Steve Scherf et al.
# Submitted via: ExactAudioCopy v1.3
#
DISCID=7d0b3c09
DTITLE=Stevie Wonder - Music of My Mind
DYEAR=1972
DGENRE=R&B
TTITLE0=Love Having You Around
TTITLE1=Superwoman
TTITLE2=I Love Every Little Thing About You
TTITLE3=Sweet Little Girl
TTITLE4=Happier Than the Morning Sun
TTITLE5=Girl Blue
TTITLE6=Seems So Long
TTITLE7=Keep on Running
TTITLE8=Evil
EXTD=
EXTT0=
EXTT1=
EXTT2=
EXTT3=
EXTT4=
EXTT5=
EXTT6=
EXTT7=
EXTT8=
PLAYORDER=
